# xmcd
#
# Track frame offsets:
#	150
#	13642
#	34515
#	54307
#	70812
#	89460
#	101635
#	114075
#	129462
#	142157
#	151150
#	160767
#	179902
#	194960
#	207155
#	227165
#	244080
#	258557
#	271877
#	291282
#
# Disc length: 4089 seconds
#
# Revision: 0
# Processed by: cddbd v1.5.1PL2 Copyright (c) Steve Scherf et al.
# Submitted via: dBpowerAMP V4.0
#
DISCID=250ff714
DTITLE=Various Artist - Chansons des routiers américains
DYEAR=1986
DGENRE=Country
TTITLE0=Trucker Joe
TTITLE1=The hitchhiker
TTITLE2=I can't stop crying over you
TTITLE3=Road Struff
TTITLE4=My Friend
TTITLE5=Truckstop mama
TTITLE6=Impact shuffle
TTITLE7=They call me big daddy
TTITLE8=Five miles from Houston
TTITLE9=Roaddust and Tumble weeds
TTITLE10=Truckdrivin' son-of-a-gun
TTITLE11=Funky wheels
TTITLE12=Saturday afternoon cowboy
TTITLE13=Wheels keep on rolling
TTITLE14=A countrystars life
TTITLE15=Once big bright star
TTITLE16=Bossy woman blues
TTITLE17=Truckdrivin' gang
TTITLE18=going to the city
TTITLE19=To truckers Road
EXTD=
EXTT0=
EXTT1=
EXTT2=
EXTT3=
EXTT4=
EXTT5=
EXTT6=
EXTT7=
EXTT8=
EXTT9=
EXTT10=
EXTT11=
EXTT12=
EXTT13=
EXTT14=
EXTT15=
EXTT16=
EXTT17=
EXTT18=
EXTT19=
PLAYORDER=
